# xmcd
#
# Track frame offsets:
#	150
#	23195
#	40849
#	62580
#	82943
#	98350
#	120081
#	137381
#	152392
#	169194
#	186719
#	200005
#	214956
#	231692
#	250720
#
# Disc length: 3584 seconds
#
# Revision: 1
# Processed by: cddbd v1.5.2PL0 Copyright (c) Steve Scherf et al.
# Submitted via: audiograbber 1.83.01
#
DISCID=c10dfe0f
DTITLE=ChartBuster - CB60386
DYEAR=1900
DGENRE=Karaoke
TTITLE0=Dierks Bentley and Sarah Buxton - Sweet and Wild
TTITLE1=Carolina Rain - American Radio
TTITLE2=Taylor Swift - Change
TTITLE3=Jamey Johnson - That Lonesome Song
TTITLE4=Josh Gracin - Unbelievable (Ann Marie)
TTITLE5=Sugarland - Already Gone
TTITLE6=Josh Turner - Everything Is Fine
TTITLE7=Jake Owen - Don't Think I Can't Love You
TTITLE8=Miranda Lambert - More Like Her
TTITLE9=Phil Stacey - Old Glory
TTITLE10=Stephen Cochran - Thinkin' I'm Drinkin'
TTITLE11=Melissa Lawson - What If It All Goes Right
TTITLE12=One Flew South - My Kind Of Beautiful
TTITLE13=Kevin Fowler - Best Mistake I Ever Made
TTITLE14=Carter's Chord - Different Breed
EXTD=
EXTT0=
EXTT1=
EXTT2=
EXTT3=
EXTT4=
EXTT5=
EXTT6=
EXTT7=
EXTT8=
EXTT9=
EXTT10=
EXTT11=
EXTT12=
EXTT13=
EXTT14=
PLAYORDER=
